{"title":"One.Direction.This.Is.Us.2013.EXTENDED.720p.BRRip.x264-Fastbet99","uid":9320312,"size":1406066095,"categoryP":"video","categoryS":"hd___movies","magnet":"?xt=urn:btih:48e03fe2ff28755dbedced0a755b91dab6927942&amp;dn=One.Direction.This.Is.Us.2013.EXTENDED.720p.BRRip.x264-Fastbet99&amp;tr=udp%3A%2F%2Ftracker.openbittorrent.com%3A80&amp;tr=udp%3A%2F%2Fopen.demonii.com%3A1337&amp;tr=udp%3A%2F%2Ftracker.coppersurfer.tk%3A6969&amp;tr=udp%3A%2F%2Fexodus.desync.com%3A6969","seeders":1,"leechers":1,"uploader":"Fastbet99","files":-1,"time":1386539154,"description":"One Direction : This is Us (2013)\n\nIMDB Info\t\t\t\t : http://www.imdb.com/title/tt2515086\n\nSource\t\t\t\t\t : PHD (Thanks)\nComplete name                            : One.Direction.This.Is.Us.2013.EXTENDED.720p.BRRip.x264-Fastbet99.mp4\nFormat                                   : MPEG-4\nFormat profile                           : Base Media\nCodec ID                                 : isom\nFile size                                : 1.31 GiB\nDuration                                 : 1h 46mn\nOverall bit rate mode                    : Variable\nOverall bit rate                         : 1 757 Kbps\n\nVideo\nID                                       : 1\nFormat                                   : AVC\nFormat/Info                              : Advanced Video Codec\nFormat profile                           : &lt;a class=&quot;__cf_email__&quot; href=&quot;/cdn-cgi/l/email-protection&quot; data-cfemail=&quot;125a7b757a525e263c23&quot;&gt;[email&amp;#160;protected]&lt;/a&gt;&lt;script data-cfhash='f9e31' type=&quot;text/javascript&quot;&gt;\n/* &lt;![CDATA[ */!function(){try{var t=&quot;currentScript&quot;in document?document.currentScript:function(){for(var t=document.getElementsByTagName(&quot;script&quot;),e=t.length;e--;)if(t[e].getAttribute(&quot;data-cfhash&quot;))return t[e]}();if(t&amp;&amp;t.previousSibling){var e,r,n,i,c=t.previousSibling,a=c.getAttribute(&quot;data-cfemail&quot;);if(a){for(e=&quot;&quot;,r=parseInt(a.substr(0,2),16),n=2;a.length-n;n+=2)i=parseInt(a.substr(n,2),16)^r,e+=String.fromCharCode(i);e=document.createTextNode(e),c.parentNode.replaceChild(e,c)}t.parentNode.removeChild(t);}}catch(u){}}()/* ]]&gt; */&lt;/script&gt;\nFormat settings, CABAC                   : Yes\nFormat settings, ReFrames                : 4 frames\nCodec ID                                 : avc1\nCodec ID/Info                            : Advanced Video Coding\nDuration                                 : 1h 46mn\nBit rate                                 : 1 617 Kbps\nMaximum bit rate                         : 12.1 Mbps\nWidth                                    : 1 280 pixels\nHeight                                   : 690 pixels\nDisplay aspect ratio                     : 1.85:1\nFrame rate mode                          : Constant\nFrame rate                               : 23.976 fps\nColor space                              : YUV\nChroma subsampling                       : 4:2:0\nBit depth                                : 8 bits\nScan type                                : Progressive\nBits/(Pixel*Frame)                       : 0.076\nStream size                              : 1.20 GiB (92%)\nWriting library                          : x264 core 138 r2358 9e941d1\n\nAudio\nID                                       : 2\nFormat                                   : AAC\nFormat/Info                              : Advanced Audio Codec\nFormat profile                           : LC\nCodec ID                                 : 40\nDuration                                 : 1h 46mn\nBit rate mode                            : Variable\nBit rate                                 : 96.0 Kbps\nMaximum bit rate                         : 134 Kbps\nChannel(s)                               : 2 channels\nChannel positions                        : Front: L R\nSampling rate                            : 48.0 KHz\nCompression mode                         : Lossy\nStream size                              : 73.2 MiB (5%)\nLanguage                                 : English\n\nText #1\nID                                       : 3\nFormat                                   : mp4s\nCodec ID                                 : E0\nDuration                                 : 1h 46mn\nBit rate mode                            : Variable\nBit rate                                 : 7 584 bps\nMaximum bit rate                         : 73.5 Kbps\nStream size                              : 5.78 MiB (0%)\nLanguage                                 : English\n\nText #2\nID                                       : 4\nFormat                                   : mp4s\nCodec ID                                 : E0\nDuration                                 : 1h 46mn\nBit rate mode                            : Variable\nBit rate                                 : 6 104 bps\nMaximum bit rate                         : 87.5 Kbps\nStream size                              : 4.64 MiB (0%)\nLanguage                                 : English\n\nText #3\nID                                       : 5\nFormat                                   : mp4s\nCodec ID                                 : E0\nDuration                                 : 1h 46mn\nBit rate mode                            : Variable\nBit rate                                 : 4 104 bps\nMaximum bit rate                         : 67.1 Kbps\nStream size                              : 3.14 MiB (0%)\nLanguage                                 : French\n\nText #4\nID                                       : 6\nFormat                                   : mp4s\nCodec ID                                 : E0\nDuration                                 : 1h 46mn\nBit rate mode                            : Variable\nBit rate                                 : 6 088 bps\nMaximum bit rate                         : 89.4 Kbps\nStream size                              : 4.63 MiB (0%)\nLanguage                                 : Indonesian\n\nText #5\nID                                       : 7\nFormat                                   : mp4s\nCodec ID                                 : E0\nDuration                                 : 1h 46mn\nBit rate mode                            : Variable\nBit rate                                 : 6 184 bps\nMaximum bit rate                         : 97.7 Kbps\nStream size                              : 4.71 MiB (0%)\nLanguage                                 : Malay\n\nText #6\nID                                       : 8\nFormat                                   : mp4s\nCodec ID                                 : E0\nDuration                                 : 1h 46mn\nBit rate mode                            : Variable\nBit rate                                 : 5 104 bps\nMaximum bit rate                         : 77.2 Kbps\nStream size                              : 3.88 MiB (0%)\nLanguage                                 : Portuguese\n\nText #7\nID                                       : 9\nFormat                                   : mp4s\nCodec ID                                 : E0\nDuration                                 : 1h 46mn\nBit rate mode                            : Variable\nBit rate                                 : 5 288 bps\nMaximum bit rate                         : 81.2 Kbps\nStream size                              : 4.03 MiB (0%)\nLanguage                                 : Spanish\nEncoder\t\t\t\t\t : Fastbet99\n\nScreenshots\n &lt;a href=&quot;\nhttp://lookpic.com/O/i2/725/LgicEaOn.jpeg&quot; rel=&quot;nofollow&quot; target=&quot;_NEW&quot;&gt;\nhttp://lookpic.com/O/i2/725/LgicEaOn.jpeg&lt;/a&gt;\n\nStairway To heaven - Help People With Keep Seed As Long You Can","torrent":{"xt":"urn:btih:48e03fe2ff28755dbedced0a755b91dab6927942","amp;dn":"One.Direction.This.Is.Us.2013.EXTENDED.720p.BRRip.x264-Fastbet99","amp;tr":["udp%3A%2F%2Ftracker.openbittorrent.com%3A80","udp%3A%2F%2Fopen.demonii.com%3A1337","udp%3A%2F%2Ftracker.coppersurfer.tk%3A6969","udp%3A%2F%2Fexodus.desync.com%3A6969"],"infoHash":"48e03fe2ff28755dbedced0a755b91dab6927942","infoHashBuffer":{"type":"Buffer","data":[72,224,63,226,255,40,117,93,190,220,237,10,117,91,145,218,182,146,121,66]},"announce":[],"urlList":[]}}